<svg id="visual" viewBox="0 0 1400 200" width="1400" height="200" xmlns="http://www.w3.org/2000/svg" xmlns:xlink="http://www.w3.org/1999/xlink" version="1.1"><path d="M0 67L350 73L700 67L1050 71L1400 65L1400 0L1050 0L700 0L350 0L0 0Z" fill="#f7e8df"></path><path d="M0 103L350 113L700 105L1050 109L1400 105L1400 63L1050 69L700 65L350 71L0 65Z" fill="#f1e2d4"></path><path d="M0 137L350 143L700 135L1050 139L1400 135L1400 103L1050 107L700 103L350 111L0 101Z" fill="#ecdac7"></path><path d="M0 201L350 201L700 201L1050 201L1400 201L1400 133L1050 137L700 133L350 141L0 135Z" fill="#e7d1b8"></path></svg>